<?xml version="1.0" encoding="UTF-8" standalone="no"?>
<svg
   xmlns:dc="http://purl.org/dc/elements/1.1/"
   xmlns:cc="http://web.resource.org/cc/"
   xmlns:rdf="http://www.w3.org/1999/02/22-rdf-syntax-ns#"
   xmlns:svg="http://www.w3.org/2000/svg"
   xmlns="http://www.w3.org/2000/svg"
   xmlns:sodipodi="http://sodipodi.sourceforge.net/DTD/sodipodi-0.dtd"
   xmlns:inkscape="http://www.inkscape.org/namespaces/inkscape"
   width="902"
   height="600"
   id="svg2"
   sodipodi:version="0.32"
   inkscape:version="0.45"
   sodipodi:docname="CF0052_DSC_0157.svg"
   inkscape:output_extension="org.inkscape.output.svg.inkscape"
   sodipodi:docbase="/home/redhog/Pictures/Photoprojects/Creations/Sketches/Webwidgets"
   inkscape:export-filename="/home/redhog/Pictures/Photoprojects/Creations/Sketches/Webwidgets/CF0052_DSC_0157.export.png"
   inkscape:export-xdpi="43.75808"
   inkscape:export-ydpi="43.75808"
   sodipodi:modified="TRUE">
  <metadata
     id="metadata13">
    <rdf:RDF>
      <cc:Work
         rdf:about="">
        <dc:format>image/svg+xml</dc:format>
        <dc:type
           rdf:resource="http://purl.org/dc/dcmitype/StillImage" />
      </cc:Work>
    </rdf:RDF>
  </metadata>
  <defs
     id="defs11" />
  <sodipodi:namedview
     inkscape:cy="332.25991"
     inkscape:cx="416.9268"
     inkscape:zoom="0.70710678"
     inkscape:window-height="767"
     inkscape:window-width="1274"
     inkscape:pageshadow="2"
     inkscape:pageopacity="0.0"
     guidetolerance="10.0"
     gridtolerance="10.0"
     objecttolerance="10.0"
     borderopacity="1.0"
     bordercolor="#666666"
     pagecolor="#ffffff"
     id="base"
     inkscape:window-x="0"
     inkscape:window-y="6"
     inkscape:current-layer="svg2" />
  <g
     id="g3179"
     transform="translate(2.1715729,69.041631)">
    <path
       sodipodi:nodetypes="csscsccssscsccsscsscsscscssscsssscscscsccssssssssssssscsssssssscccsssssscsssssc"
       id="path6"
       d="M 392.44274,199.52186 C 388.03706,206.51664 400.77083,217.77082 405.25307,224.58509 C 406.86558,227.03554 410.17791,230.35276 408.79149,232.92958 C 407.22325,235.84735 396.82211,237.14855 391.24652,238.23358 C 373.56279,241.67351 358.72008,246.24859 342.20146,250.4707 C 336.85914,251.83612 328.29539,255.00714 322.13845,252.93995 C 313.06391,249.89216 323.79521,239.5943 322.95068,235.0281 C 320.00439,219.10857 279.13072,216.88593 253.68112,224.18904 C 233.97577,229.84367 220.62236,242.33037 233.46618,252.25906 C 235.97705,254.1999 238.86951,256.39711 242.96657,257.77611 C 252.22532,260.89335 278.51945,264.22519 257.26499,270.61266 C 243.28835,274.81336 226.6226,277.21212 211.81338,280.72514 C 203.63243,282.66546 193.9885,286.36385 184.3003,286.52101 C 167.66805,286.78992 147.41722,282.23938 131.66658,280.26565 C 119.03688,278.68249 105.99329,277.53794 93.387515,275.75584 C 89.984267,275.27494 82.771055,273.91526 80.43962,275.89369 C 77.380884,278.48877 97.856597,280.89275 101.76106,280.99927 C 123.60884,281.59714 147.17559,286.50796 168.74943,288.58821 C 175.96384,289.28371 187.56479,289.66332 185.86975,294.03163 C 176.40883,318.41449 158.11264,342.63131 144.42428,366.61002 C 140.40857,373.64548 137.24456,380.89711 134.06022,388.01819 C 132.51949,391.46282 132.47403,395.34553 127.97505,398.4069 C 123.0837,401.73561 110.63822,403.92081 102.95728,405.84963 C 85.957787,410.11769 69.064756,414.61236 52.716005,419.34931 C 45.669068,421.39092 32.931707,424.1719 29.987808,427.70163 C 39.117366,428.69685 45.81381,425.82763 52.716005,423.60484 C 66.940268,419.02401 83.156238,416.03992 97.083838,411.25964 C 107.91801,407.54088 122.09801,405.11184 134.05903,402.14184 C 158.38418,396.10161 181.68895,389.31574 205.83228,383.14496 C 219.38786,379.67997 235.32032,372.70039 251.28867,371.50414 C 256.77095,371.09373 262.3896,373.09513 266.83955,374.22089 C 277.8388,377.00239 289.4864,379.47477 300.31579,382.31892 C 303.95469,383.27446 309.18935,385.38708 307.31847,387.47359 C 303.02403,392.26015 284.71348,390.4582 276.52056,393.08253 C 255.01729,399.97126 265.25336,415.06559 284.78286,419.93203 C 304.56716,424.86166 337.47639,421.9397 342.93116,410.99282 C 345.30446,406.22872 334.42603,397.78606 349.37998,395.76325 C 358.68539,394.50435 374.89657,399.65745 382.87297,401.45939 C 392.18196,403.56157 411.74257,406.5018 415.94968,410.99491 C 419.93907,415.25409 398.32666,453.68219 391.24652,466.86292 C 403.45395,466.45147 403.69918,456.97652 405.3081,452.76486 C 409.0427,442.98289 415.38386,433.36749 418.42227,423.52443 C 419.8051,419.04333 419.54671,412.78588 428.44181,409.7595 C 441.31793,405.37918 463.05925,402.16325 478.57065,400.02191 C 483.90459,399.28568 490.97067,396.98822 495.97805,399.21206 C 502.04528,401.90583 494.6969,408.58727 495.44214,412.03712 C 497.16351,420.00513 522.52219,423.53174 538.38169,421.62693 C 556.61329,419.43703 577.22059,408.51678 564.52151,400.07465 C 560.81203,397.60853 544.03862,394.51479 545.97291,391.15162 C 549.4575,385.09102 580.80208,382.85413 592.21163,381.142 C 596.5276,380.49453 603.15825,378.56623 607.7625,379.26747 C 622.18055,381.46207 634.74925,391.17146 646.04157,395.54969 C 655.36013,399.16298 705.45069,421.32879 715.28362,426.02605 C 723.6141,430.00536 733.56307,433.45103 742.93546,436.95884 C 749.96446,439.58943 759.05095,444.90597 769.25232,443.8883 C 763.76526,436.90088 731.56245,431.74474 734.94112,424.56664 C 738.31925,417.38968 739.58126,389.38101 735.72464,386.64755 C 723.11767,377.71251 688.93327,390.30991 685.89606,378.09734 C 685.02163,374.58065 689.60913,368.2266 699.87151,368.86728 C 704.96143,369.18475 708.39817,371.11409 713.02994,371.90776 C 723.55669,373.71127 737.4783,372.06963 741.10644,367.13165 C 748.99791,356.39049 754.66082,266.09658 759.0055,263.81582 C 764.77846,260.78422 777.82085,259.82973 785.99942,258.49876 C 808.36277,254.85937 830.95818,251.55782 852.98779,247.55971 L 850.59535,244.42681 L 847.00668,244.42681 C 838.49318,248.46251 818.15264,249.89372 806.33517,251.6022 C 788.79498,254.13828 769.88512,259.07208 751.29107,259.37911 C 727.24822,259.77594 702.77474,255.91412 678.33954,255.91412 C 659.36867,255.91412 622.90905,257.19495 610.88105,249.10528 C 604.26475,244.65499 623.12437,238.38709 627.94395,235.0281 C 644.71137,223.34227 637.00053,209.17883 605.37006,204.27563 C 566.19143,198.20234 521.35588,203.98578 517.05307,224.06294 C 515.83651,229.73715 542.56487,242.6045 520.43718,245.2445 C 512.51341,246.19011 503.9389,244.4242 496.51396,243.4577 C 477.10527,240.93101 458.74448,237.17675 439.09536,234.95552 C 430.19547,233.94934 418.28829,233.90861 413.46273,229.78414 C 406.22799,223.60016 403.88699,214.65452 400.41555,207.87627 C 398.82458,204.76875 399.61648,201.16523 392.44274,199.52186 z "
       style="fill:#000000;stroke:none" />
    <path
       id="path2200"
       d="M 738.15058,263.22423 L 738.15058,262.17992 C 709.99991,257.16571 675.97102,258.67003 646.04157,257.10723 C 633.50637,256.45298 615.60014,255.53034 607.40722,250.63831 C 596.7166,244.25398 617.54998,238.99435 623.57056,233.9838 C 639.77218,220.50046 625.69744,211.04719 595.80029,205.21597 C 566.67351,199.53518 517.23968,209.79805 519.83907,225.10724 C 520.74102,230.41229 547.57106,242.64836 526.40154,246.51071 C 518.64644,247.92522 507.85413,246.91485 500.10262,245.98752 C 482.19041,243.84565 464.85478,240.58639 447.4689,237.73963 C 442.25936,236.88643 419.24901,233.32655 417.70453,236.38726 C 416.85187,238.07701 422.78608,247.63072 428.3521,249.07969 C 448.1029,254.22183 473.18047,254.85937 494.12152,258.78751 C 504.9856,260.82547 523.86555,265.40264 535.93661,264.65022 C 545.36044,264.06332 538.62213,258.10506 540.54087,255.39197 C 544.55898,249.71097 558.78443,248.36382 570.67965,249.37053 C 584.51515,250.54171 591.06445,257.5521 583.58209,262.68119 C 580.20875,264.99379 569.28606,267.20876 576.93828,270.11661 C 583.85603,272.74512 595.61608,273.98627 604.17384,275.23369 C 615.15874,276.83512 627.00611,279.77744 638.86425,279.78945 C 648.63378,279.79885 659.79452,276.94791 668.76977,275.45508 C 692.07454,271.57916 715.13768,267.40091 738.15058,263.22423"
       style="fill:#ffffff;stroke:none" />
    <path
       id="path2198"
       d="M 198.65495,287.7653 C 209.47477,291.636 235.13132,292.66986 248.89623,293.57892 C 261.89198,294.43734 284.1058,300.1789 296.74507,298.32214 C 305.6282,297.01728 314.91327,291.95451 321.86571,289.24507 C 326.50346,287.43739 335.62584,285.17857 337.67257,282.52343 C 341.07343,278.11126 324.9065,278.15094 319.68141,276.38085 C 306.61269,271.95406 311.84377,264.9139 321.88365,260.63436 C 331.5216,256.52608 349.40271,252.89609 361.21539,257.59962 C 366.95725,259.88612 367.82216,269.42514 376.89307,266.64483 C 392.41243,261.88803 402.18536,255.56291 417.19774,248.15675 C 419.94697,246.80045 415.00825,238.18868 410.96861,237.18615 C 406.02344,235.95909 393.4045,240.1718 388.85408,241.16493 C 373.24818,244.57144 359.46652,249.03061 344.5939,252.94047 C 338.34006,254.5842 329.36123,256.78768 321.87049,255.52668 C 302.01203,252.18335 320.74126,242.28703 318.71965,236.59455 C 312.72299,219.71755 269.87914,220.64505 248.09357,230.94175 C 235.87896,236.71412 231.44337,247.28036 245.43317,253.20677 C 254.75054,257.1537 272.6161,258.5797 271.35528,265.83498 C 270.37318,271.48412 259.07488,273.61868 248.89623,275.64723 C 231.59409,279.09603 214.86375,283.43458 198.65495,287.7653"
       style="fill:#ffffff;stroke:none" />
    <path
       id="path2196"
       d="M 625.70582,282.54379 L 625.70582,281.49949 C 612.72562,279.57067 600.47034,276.66542 587.42675,274.82484 C 580.69442,273.87453 572.42614,273.53565 568.66761,270.51188 C 561.02496,264.36408 596.02399,256.84563 570.67846,252.10399 C 560.55125,250.20962 548.20625,252.38908 546.30905,257.48057 C 545.51595,259.60886 548.49454,261.60086 547.60096,263.74585 C 546.33895,266.77537 540.13176,268.30632 533.59681,267.42493 C 506.64236,263.78867 480.28961,259.34465 453.45001,255.56376 C 448.89839,254.92255 430.34001,252.31286 426.73101,252.05393 C 425.90883,254.39374 432.03093,268.06784 435.46766,269.29282 C 448.68967,274.00562 455.86996,276.20123 471.39332,281.77937 C 476.94259,283.77346 487.15114,286.2709 489.59262,289.37874 C 493.95285,294.92868 462.49454,296.81577 475.86958,301.74431 C 494.14384,308.47815 495.31176,294.39818 503.70923,293.99508 C 511.01216,293.64471 517.9634,298.13573 524.02704,299.474 C 531.10747,301.03732 552.35953,297.85534 556.72933,294.95844 C 560.57996,292.40617 550.21351,290.14213 547.66078,288.28536 C 541.72393,283.9677 553.48398,278.88352 562.30611,277.74053 C 571.66654,276.52758 582.6921,279.16652 583.70291,283.5881 C 584.04025,285.05847 581.38464,288.27805 584.57735,289.29468 C 587.71384,290.29303 592.90305,288.76104 595.80029,288.22009 C 605.8019,286.35236 616.01164,284.70863 625.70582,282.54379"
       style="fill:#ffffff;stroke:none" />
    <path
       id="path2194"
       d="M 418.7596,251.73691 C 409.28912,256.26605 398.51954,260.24066 389.195,264.79277 C 385.06684,266.80879 379.26039,270.38239 372.10818,270.13019 C 361.5312,269.75737 363.09944,263.54796 358.84568,260.6683 C 350.52238,255.03325 332.33384,259.48041 324.38734,262.85298 C 322.34659,263.71975 320.6982,264.67215 319.65031,265.8355 C 310.02432,276.52601 348.41463,274.22437 343.76612,282.54379 C 339.42503,290.31287 312.85218,292.59624 305.11861,299.77476 C 312.7505,301.64093 327.16855,300.78408 330.70937,305.0041 C 333.99539,308.92179 324.15647,310.50182 320.90155,313.37104 C 316.66932,317.1018 325.09072,321.95624 333.82792,322.15152 C 336.25146,322.20582 338.70611,321.99957 341.00405,321.67427 C 361.22138,318.81237 339.23483,309.54159 353.09784,306.95015 C 363.89014,304.93309 376.85718,310.09663 387.53225,307.51355 C 396.602,305.31895 395.08639,297.25434 405.69089,296.06227 C 413.84792,295.1459 422.46549,306.7721 432.56758,298.20048 C 433.50781,297.40315 434.0796,296.49722 434.05448,295.59756 C 433.87146,288.87278 410.54515,292.60302 412.28446,287.24054 C 413.25579,284.24653 424.95689,274.19391 430.33713,269.53414 C 426.8301,264.53476 427.55147,260.52607 418.7596,251.73691"
       style="fill:#ffffff;stroke:none" />
    <path
       id="path2192"
       d="M 727.38459,424.04658 C 732.69462,416.20597 730.94455,405.10035 730.97326,396.89475 C 730.98522,393.67465 731.18857,390.13499 725.71706,387.61509 C 717.69161,383.91931 706.83112,387.72057 697.47907,387.77801 C 681.32171,387.87774 672.93262,380.08464 675.32865,373.92013 C 677.46151,368.43285 694.5878,363.25051 707.04884,365.4237 C 715.01208,366.81314 725.68955,372.63616 732.72811,367.1092 C 736.13734,364.43161 753.61772,270.69829 750.11279,264.26853 C 724.67156,266.18064 697.83674,272.52164 673.55465,276.44455 C 664.65955,277.88151 649.20199,279.6892 643.3405,283.17768 C 636.11413,287.47864 635.76723,298.13939 633.73724,303.42981 C 632.1056,307.68482 622.90546,315.51394 628.13175,319.55957 C 634.83059,324.74504 649.1015,317.29343 656.80756,316.45381 C 677.89574,314.15687 689.00026,325.41548 686.45829,332.67024 C 685.85659,334.38707 683.94263,335.95718 681.66383,337.36176 C 674.74848,341.6246 662.53148,343.05843 652.02268,340.55263 C 642.68378,338.32513 632.80898,333.24931 623.2404,338.47081 C 615.33578,342.78482 615.80111,349.88711 614.83695,355.12271 C 613.85844,360.44238 609.04126,369.9779 613.26871,374.96391 C 615.94106,378.11561 625.22135,380.35668 630.28734,382.79669 C 646.66121,390.68273 664.74568,397.72497 681.9282,405.24916 C 696.61181,411.67892 709.4987,419.16343 727.38459,424.04658"
       style="fill:#ffffff;stroke:none" />
    <path
       id="path2190"
       d="M 437.89913,272.62293 L 441.25453,285.15455 L 454.64623,312.82852 C 475.86331,310.33198 501.35606,305.21552 520.43838,301.86336 C 519.13928,300.70053 517.90239,299.92827 515.58292,299.07717 C 512.79572,298.05427 507.0096,295.76934 503.01422,296.71287 C 499.3825,297.56972 500.04161,300.40395 498.22097,301.84248 C 493.44685,305.61658 480.08028,306.5575 473.10392,303.28413 C 467.2209,300.52457 469.1827,296.14059 476.29065,294.24728 C 479.42355,293.41236 486.1834,292.90535 486.1834,290.8439 C 486.1834,288.52503 478.54911,286.58106 474.98198,285.28352 C 463.34873,281.05149 451.49777,275.57987 437.89913,272.62293"
       style="fill:#0000ff;stroke:none" />
    <path
       id="path2188"
       d="M 429.52559,273.14508 C 426.358,275.57517 414.38622,285.16864 417.64951,287.59926 C 422.54564,291.247 438.46854,288.50623 437.63955,295.59756 C 436.59525,304.53886 414.82044,304.72318 406.79739,297.68616 L 404.40495,297.68616 L 381.64685,319.09433 L 358.94856,337.89175 C 380.24546,333.16161 443.80686,316.97818 448.44621,314.34015 C 452.59717,311.97983 447.76317,307.20444 446.51193,304.47411 C 443.47951,297.85481 439.2401,291.2966 436.86201,284.6324 C 435.65742,281.25408 434.6813,275.73286 429.52559,273.14508"
       style="fill:#00ff00;stroke:none" />
    <path
       id="path2186"
       d="M 606.56628,372.87583 C 610.32493,363.54588 604.99424,345.80154 619.14813,338.43478 C 633.51234,330.95856 642.1072,337.73197 656.80756,339.55271 C 670.13226,341.2027 680.5047,335.07475 681.72006,330.05949 C 682.1507,328.28261 681.85164,326.51722 680.40661,324.83798 C 675.3741,318.99042 663.3772,317.37906 650.82645,320.20338 C 643.05102,321.95363 632.85204,325.50581 625.39719,321.07119 C 621.77384,318.91523 623.72607,315.76405 624.51079,313.35067 C 626.61016,306.88697 629.71316,300.50159 631.84363,294.0311 C 632.49557,292.05268 637.10819,286.59881 633.25038,285.00208 C 630.30289,283.78233 622.78464,285.61822 619.72471,286.15864 C 610.84636,287.72718 591.43169,294.05356 581.77939,291.40573 C 571.39141,288.55636 586.52599,278.20681 565.89477,279.52263 C 563.7966,279.6563 561.80489,279.95602 559.91486,280.37165 C 538.44031,285.09084 566.35292,289.21009 563.9545,294.55117 C 561.09673,300.91514 532.48911,298.11432 531.08115,303.97494 C 530.4639,306.54653 533.22,317.81297 538.90085,319.00295 C 543.08762,319.87964 548.9204,316.89085 552.73634,316.3285 C 565.55744,314.43831 578.80798,319.01183 577.64884,324.83798 C 576.86292,328.78388 572.07923,332.87754 562.30611,333.59706 C 556.96857,333.99024 545.44537,331.57059 543.7922,334.78965 C 541.83638,338.59978 547.96103,347.88727 553.25072,350.93768 C 556.85014,353.01375 568.1006,355.64643 566.36249,358.77516 C 563.40185,364.10527 524.44332,361.4799 538.48935,371.81064 C 539.92123,372.8633 541.9871,373.69561 544.38074,374.32323 C 565.67467,379.90345 567.77164,366.079 583.83808,365.4237 C 592.00947,365.09004 600.41173,370.98303 606.56628,372.87583"
       style="fill:#8dd35f;stroke:none" />
    <path
       id="path2184"
       d="M 138.84391,396.3726 C 146.38847,395.59878 152.44853,393.16555 159.17966,391.55315 C 177.86583,387.0778 195.67876,381.82601 214.20583,377.19924 C 223.76363,374.81249 238.8396,372.32705 245.89013,368.58897 C 251.53629,365.59549 253.04233,359.37406 255.15486,355.64486 C 257.13341,352.15324 266.71394,343.33464 262.92551,340.05972 C 259.33924,336.96023 245.36499,341.01368 239.32647,340.95677 C 220.38909,340.77924 206.76174,332.57939 209.65301,324.83798 C 213.01798,315.83141 234.43871,308.0002 254.87734,313.92765 C 260.7771,315.63874 267.73791,322.52486 275.08869,321.94423 C 278.83286,321.64817 280.42144,319.94387 281.64876,318.57009 C 285.20871,314.5866 289.49477,308.71972 290.53668,304.4762 C 291.64438,299.96743 280.13315,300.26454 272.82065,299.4646 C 254.03998,297.40994 235.59426,294.55639 216.59827,292.95286 C 211.16743,292.49442 197.82238,290.58282 193.70021,292.69858 C 189.67134,294.76734 140.62628,386.51179 138.84391,396.3726"
       style="fill:#ffffff;stroke:none" />
    <path
       id="path2182"
       d="M 253.68112,366.61002 L 294.35263,356.72258 L 344.43481,341.97288 L 359.48566,331.62594 L 385.26542,310.73992 C 380.8382,309.80997 359.90912,307.90934 356.70086,310.01048 C 354.5668,311.40827 357.83248,314.32605 357.62314,315.96143 C 356.92814,321.38344 346.2088,325.61494 333.82792,325.30374 C 321.00802,324.98158 308.32568,318.40927 313.50293,312.82852 C 315.68603,310.47623 329.42223,306.87966 320.59412,304.89184 C 318.03182,304.31538 315.03289,303.9906 312.29594,303.60943 C 285.55801,299.88493 297.72836,319.8598 278.6941,324.01508 C 267.97476,326.35483 262.69703,320.26551 256.87981,317.62604 C 251.1535,315.0273 242.4163,314.37618 234.54158,315.19491 C 210.95569,317.64797 210.354,330.37539 227.3822,336.03446 C 238.24149,339.64356 244.70228,337.4192 256.07356,336.53886 C 260.98883,336.15821 266.31201,337.30746 267.8037,339.47908 C 269.63033,342.13683 266.2258,346.34585 264.51162,348.86627 C 260.61552,354.59583 254.30674,360.63192 253.68112,366.61002"
       style="fill:#dd55ff;stroke:none" />
    <path
       id="path2180"
       d="M 459.43111,315.43928 L 485.74797,326.0311 L 541.97035,346.76831 C 541.77058,342.55612 532.59916,335.31076 539.95831,331.79773 C 548.6034,327.67117 573.13191,333.45347 572.7216,324.31583 C 572.67256,323.23655 571.81606,322.11706 570.57319,321.19076 C 558.94951,312.53977 546.41072,324.51686 534.97007,320.86599 C 524.40744,317.4955 534.00591,308.29782 526.21014,304.27465 C 522.65856,302.44191 512.34355,305.05266 508.47617,305.72728 C 491.71233,308.65132 475.15783,311.53202 459.43111,315.43928"
       style="fill:#ff0000;stroke:none" />
    <path
       id="path2178"
       d="M 354.16367,344.15755 C 360.39838,345.17366 378.54505,348.71749 384.54051,346.67275 C 388.12079,345.45144 385.91736,341.74835 386.95926,339.98087 C 389.86369,335.05334 402.57473,333.25714 412.7785,334.73483 C 421.53244,336.00313 431.62137,339.64669 426.58169,344.15755 C 424.27179,346.22527 413.59551,349.24591 419.16273,351.65093 C 425.96803,354.59064 443.33955,355.16031 452.25379,354.74781 C 479.77644,353.47324 514.9238,352.05195 540.77413,350.94551 C 518.4993,341.37084 457.61161,315.19451 449.86134,316.89451 C 442.72469,318.45992 368.42502,337.85415 354.16367,344.15755"
       style="fill:#ffff00;stroke:none" />
    <path
       id="path2176"
       d="M 259.66222,368.17648 L 259.66222,369.74293 C 273.19866,373.10975 290.58094,376.57161 302.72617,380.68929 C 307.14023,382.18577 313.5424,384.20911 312.95027,386.97389 C 311.63802,393.10551 291.50562,392.07426 282.40836,394.24171 C 267.66494,397.75369 269.49157,410.0425 281.30545,414.37165 C 297.83602,420.42808 331.19982,421.50945 336.95005,409.94852 C 339.62959,404.55888 327.33842,396.01023 345.79132,393.62714 C 354.8814,392.45334 364.54089,394.94713 372.10699,396.73341 C 386.79299,400.20049 402.68718,404.79437 418.7596,406.81561 C 421.88174,401.97684 423.80885,397.00702 427.16305,392.1954 C 428.571,390.1752 430.60578,387.89914 426.61399,386.15621 C 421.37693,383.87075 414.03692,386.04969 407.99361,386.2481 C 394.16171,386.70238 381.76168,381.56964 381.77963,375.48658 C 381.79996,368.88138 397.77908,362.64325 412.7785,364.39872 C 418.92588,365.11824 423.45477,368.19684 429.50765,368.4553 C 434.67891,368.67617 436.40745,366.24609 437.44577,364.52142 C 438.06421,363.49435 438.64318,362.44692 438.88721,361.38852 C 440.80595,353.03463 416.48798,358.40547 410.80354,352.50204 C 405.50308,346.99805 431.56395,342.54985 416.09801,337.35393 C 408.41349,334.7719 396.67377,336.59107 393.33512,340.50302 C 390.39481,343.94817 397.25394,348.63552 385.24747,350.06151 C 372.31034,351.5982 358.90908,345.51097 345.79013,346.58399 C 337.77784,347.23929 330.26437,350.21345 323.06193,351.79661 C 301.134,356.61763 281.14037,362.9769 259.66222,368.17648"
       style="fill:#ffffff;stroke:none" />
    <path
       id="path8"
       d="M 424.7407,405.77131 C 432.45633,406.54357 439.52001,403.93856 446.27268,402.52562 C 458.85094,399.89346 479.87453,394.74976 494.12032,395.40558 C 512.93688,396.27183 499.83108,406.74356 501.55483,411.51497 C 503.92933,418.09093 523.29854,418.02932 534.79303,417.25601 C 540.6246,416.86388 545.71811,415.7517 549.997,413.9555 C 557.276,410.89987 563.09322,404.5547 555.80584,400.60463 C 548.8869,396.85403 535.15548,395.90476 538.76328,389.58674 C 540.44756,386.63502 548.31989,385.44034 553.93256,384.23574 C 568.84944,381.03443 585.20417,379.28523 600.58518,376.53088 C 598.89851,373.90864 587.13128,366.84551 579.52451,368.80201 C 575.0016,369.96536 574.41067,373.18912 571.20838,374.91535 C 563.38271,379.13433 547.6847,378.78031 538.89487,375.28086 C 528.72819,371.23367 531.62185,363.52046 543.21442,360.34892 C 546.97534,359.32028 552.52102,359.88368 555.81422,358.76367 C 558.29877,357.91883 556.61329,356.67559 554.83212,355.92265 C 548.32468,353.17196 539.16163,354.29615 531.20436,354.60056 C 511.15092,355.36708 491.28528,356.77584 471.39332,357.64418 C 464.57486,357.94233 452.45595,356.84268 446.79184,358.7903 C 438.68864,361.57649 446.46886,368.37594 434.25903,370.98721 C 426.73241,372.59752 421.58149,368.69706 416.2595,367.11599 C 405.71122,363.98204 395.16654,367.07735 389.43185,371.30938 C 382.54162,376.39408 393.37938,383.89477 406.79739,384.16107 C 414.05845,384.30518 426.42259,380.71227 431.70391,384.48219 C 438.42308,389.27919 426.93816,400.60829 424.7407,405.77131 z "
       style="fill:#5555ff;stroke:none" />
  </g>
  <text
     xml:space="preserve"
     style="font-size:12px;font-style:normal;font-weight:normal;line-height:125%;fill:#000000;fill-opacity:1;stroke:none;stroke-width:1pt;stroke-linecap:butt;stroke-linejoin:miter;stroke-opacity:1;font-family:Bitstream Vera Sans"
     x="460.82843"
     y="104.55635"
     id="text3173"
     sodipodi:linespacing="125%"><tspan
       sodipodi:role="line"
       id="tspan3175"
       x="460.82843"
       y="104.55635"
       style="font-size:72px;font-style:normal;font-variant:normal;font-weight:bold;font-stretch:normal;text-align:center;line-height:125%;writing-mode:lr-tb;text-anchor:middle;font-family:TSCu_Times">Redback</tspan><tspan
       sodipodi:role="line"
       x="460.82843"
       y="194.55635"
       id="tspan3177"
       style="font-size:72px;font-style:normal;font-variant:normal;font-weight:bold;font-stretch:normal;text-align:center;line-height:125%;writing-mode:lr-tb;text-anchor:middle;font-family:TSCu_Times">Webwidgets</tspan></text>
</svg>
